<mxfile host="app.diagrams.net" modified="2023-10-30T09:40:52.863Z" agent="Mozilla/5.0 (Windows NT 10.0; Win64; x64) AppleWebKit/537.36 (KHTML, like Gecko) Chrome/118.0.0.0 Safari/537.36" version="22.0.8" etag="F8OntwGN52ocAxLwXnzE" type="github">
  <diagram name="Page-1" id="pi_6hTvcDj-W9Jash9s9">
    <mxGraphModel>
      <root>
        <mxCell id="0" />
        <mxCell id="1" parent="0" />
      </root>
    </mxGraphModel>
  </diagram>
</mxfile>
